<svg xmlns="http://www.w3.org/2000/svg" viewBox="0 0 100 100" preserveAspectRatio="xMidYMid" width="200" height="200" style="shape-rendering: auto; display: block; background: rgb(255, 255, 255); --darkreader-inline-bgimage: initial; --darkreader-inline-bgcolor: var(--darkreader-background-ffffff, #181a1b);" data-darkreader-inline-bgimage="" data-darkreader-inline-bgcolor=""><g data-idx="1"><g transform="matrix(1,0,0,1,20,50)" data-idx="2">
<circle fill="#e15b64" r="6" cy="0" cx="0" data-idx="3" data-darkreader-inline-fill="" style="--darkreader-inline-fill: var(--darkreader-text-e15b64, #e2616a);" transform="matrix(0.9631248116493225,0,0,0.9631248116493225,0,0)">
  
</circle>
</g><g transform="matrix(1,0,0,1,40,50)" data-idx="5">
<circle fill="#f8b26a" r="6" cy="0" cx="0" data-idx="6" data-darkreader-inline-fill="" style="--darkreader-inline-fill: var(--darkreader-text-f8b26a, #f8b066);" transform="matrix(0.9381640553474426,0,0,0.9381640553474426,0,0)">
  
</circle>
</g><g transform="matrix(1,0,0,1,60,50)" data-idx="8">
<circle fill="#abbd81" r="6" cy="0" cx="0" data-idx="9" data-darkreader-inline-fill="" style="--darkreader-inline-fill: var(--darkreader-text-abbd81, #aebf85);" transform="matrix(0.6517813801765442,0,0,0.6517813801765442,0,0)">
  
</circle>
</g><g transform="matrix(1,0,0,1,80,50)" data-idx="11">
<circle fill="#81a3bd" r="6" cy="0" cx="0" data-idx="12" data-darkreader-inline-fill="" style="--darkreader-inline-fill: var(--darkreader-text-81a3bd, #85a7bf);" transform="matrix(0.3009684681892395,0,0,0.3009684681892395,0,0)">
  
</circle>
</g><g data-idx="14"></g></g><text data-watermark="true" text-anchor="middle" dominant-baseline="middle" stroke-opacity="0.1" fill="black" fill-opacity="0.1" stroke="white" stroke-width="1" font-size="5.0" x="50" y="50" data-idx="15" style="opacity: 1; font-size: 5px; --darkreader-inline-fill: var(--darkreader-text-000000, #e8e6e3); --darkreader-inline-stroke: var(--darkreader-border-ffffff, #303436);" data-darkreader-inline-fill="" data-darkreader-inline-stroke="">LOADING</text></svg>